<?xml version="1.0" standalone="no"?>
<!DOCTYPE svg PUBLIC "-//W3C//DTD SVG 1.1//EN"
  "http://www.w3.org/Graphics/SVG/1.1/DTD/svg11.dtd">
<svg version="1.1" xmlns="http://www.w3.org/2000/svg" xmlns:xlink="http://www.w3.org/1999/xlink" width="2088" height="862" viewBox="-1024 47.5919189453125 2088 862" id="ccdiagram"><filter id="grayscale"><feColorMatrix type="matrix" values="0.3333 0.3333 0.3333 0 0 0.3333 0.3333 0.3333 0 0 0.3333 0.3333 0.3333 0 0 0 0 0 1 0"></feColorMatrix></filter><defs><style type="text/css">@import url('https://fonts.googleapis.com/css?family=Open+Sans:400,700|Inconsolata:400');</style></defs><g><g style="pointer-events: none;"><g><pattern id="gridPatternMinor" x="0" y="37" width="128" height="74" patternUnits="userSpaceOnUse"><path d="M 0 0 L 128 74" stroke="#eee" stroke-width="1"></path><path d="M 128 0 L 0 74" stroke="#eee" stroke-width="1"></path></pattern><polygon points="20 -556, 1809 478, 20 1513, -1770 478" fill="url(#gridPatternMinor)"></polygon></g></g><g pointer-events="auto"></g><g style="pointer-events: none;"><g><pattern id="gridPatternMajor" x="0" y="37" width="128" height="74" patternUnits="userSpaceOnUse"><path d="M 64 0 L 128 37 64 74 0 37 z" stroke="#54626f" stroke-width="1" fill="none"></path></pattern><polygon points="20 -556, 1809 478, 20 1513, -1770 478" fill="url(#gridPatternMajor)"></polygon></g></g><g pointer-events="auto"><g opacity="1"><g id="sg-06fb550d6789632bd"><g><g><polygon points="-608 722, -544 722, -352 611, -352 574, -576 444, -800 574, -800 611" stroke="#e91e63" stroke-width="8" fill="none"></polygon></g><g><polygon points="-576 444, -608 426, -800 537, -800 574" stroke="#e91e63" stroke-width="8" fill="#e91e63"></polygon><text font-family="Inconsolata" font-size="20pt" font-weight="bold" fill="#ffffff" transform="translate(-623 461) matrix(0.707 -0.409 0.707 0.409 0 0)" text-anchor="end">eks-alb-public</text><g transform="translate(-608 435) matrix(0.707 0.409 -0.707 0.409 0 0)"><svg width="23" height="32" style="fill: rgb(255, 255, 255);"><svg xmlns="http://www.w3.org/2000/svg" width="23" height="32" viewBox="0 0 23 32"><path d="M19.429 17.143V5.714h-8v20.304c.911-.482 2.375-1.321 3.804-2.446 1.911-1.5 4.196-3.839 4.196-6.429zm3.428-13.714v13.714c0 7.518-10.518 12.268-10.964 12.464a1.049 1.049 0 0 1-.928 0C10.519 29.411.001 24.661.001 17.143V3.429c0-.625.518-1.143 1.143-1.143h20.571c.625 0 1.143.518 1.143 1.143z"></path></svg></svg></g></g></g></g></g><g opacity="1"><g id="sg-0f47f1eae8d2b0259"><g><g><polygon points="-480 722, -416 722, 96 426, 96 389, -192 222, -800 574, -800 611, -608 722" stroke="#2196f3" stroke-width="8" fill="none"></polygon></g><g><polygon points="-192 222, -224 204, -448 333, -448 370" stroke="#2196f3" stroke-width="8" fill="#2196f3"></polygon><text font-family="Inconsolata" font-size="20pt" font-weight="bold" fill="#ffffff" transform="translate(-239 239) matrix(0.707 -0.409 0.707 0.409 0 0)" text-anchor="end">terraform-eks-node</text><g transform="translate(-224 213) matrix(0.707 0.409 -0.707 0.409 0 0)"><svg width="23" height="32" style="fill: rgb(255, 255, 255);"><svg xmlns="http://www.w3.org/2000/svg" width="23" height="32" viewBox="0 0 23 32"><path d="M19.429 17.143V5.714h-8v20.304c.911-.482 2.375-1.321 3.804-2.446 1.911-1.5 4.196-3.839 4.196-6.429zm3.428-13.714v13.714c0 7.518-10.518 12.268-10.964 12.464a1.049 1.049 0 0 1-.928 0C10.519 29.411.001 24.661.001 17.143V3.429c0-.625.518-1.143 1.143-1.143h20.571c.625 0 1.143.518 1.143 1.143z"></path></svg></svg></g></g></g></g></g></g><g></g><g pointer-events="auto"><g opacity="1"><g id="vpc-0aa3f0f5503a92323"><g><g><polygon points="728 865, 792 865, 1032 726, 1032 689, 786 547, 722 547, 721 548, 657 548, -145 84, -992 574, -992 611, -544 870, -480 870, 96 537, 160 537" stroke="#9c27b0" stroke-width="8" fill="none"></polygon></g><g><polygon points="-145 84, -177 65, -401 195, -401 232" stroke="#9c27b0" stroke-width="8" fill="#9c27b0"></polygon><text font-family="Inconsolata" font-size="20pt" font-weight="bold" fill="#ffffff" transform="translate(-185 97) matrix(0.707 -0.409 0.707 0.409 0 0)" text-anchor="end">terraform-eks-vpc</text><g transform="translate(-177 70) matrix(0.707 0.409 -0.707 0.409 0 0)"><svg width="34" height="32" style="fill: rgb(255, 255, 255);"><svg xmlns="http://www.w3.org/2000/svg" width="34" height="32" viewBox="0 0 34 32"><path d="M34.286 20.571a6.858 6.858 0 0 1-6.857 6.857H8c-4.411 0-8-3.589-8-8a7.993 7.993 0 0 1 4.607-7.232c-.018-.25-.036-.518-.036-.768a9.137 9.137 0 0 1 9.143-9.143c3.821 0 7.089 2.339 8.464 5.679a4.439 4.439 0 0 1 2.964-1.107 4.58 4.58 0 0 1 4.571 4.571 4.49 4.49 0 0 1-.732 2.464c3.036.714 5.304 3.429 5.304 6.679z"></path></svg></svg></g></g></g></g></g></g><g></g><g pointer-events="auto"><g opacity="1"><g id="88dd796d-f15a-4723-8fcc-142643ea97a8"><svg x="-192" y="333" overflow="visible"><polygon points="0 0, 128 74, 64 111, -64 37" fill="#f5b720"></polygon><polygon points="0 0, 128 74, 64 111, -64 37" fill="none" stroke-width="20" stroke="#f5b720" opacity="1"></polygon><g cursor="nwse-resize"><polygon points="0 0, -19 -11, 13 -30, -83 -11, -115 44, -83 26, -64 37" fill="#f5b720"></polygon><polygon points="128 74, 147 85, 179 67, 147 122, 51 141, 83 122, 64 111" fill="#f5b720"></polygon></g></svg></g></g></g><g pointer-events="none"></g><g pointer-events="auto"><g><g><g cursor="cell"><line x1="-288" y1="426" x2="-234" y2="394" stroke="red" stroke-width="8" opacity="0"></line><line x1="-288" y1="426" x2="-234" y2="394" stroke="#000000" stroke-width="2" stroke-linecap="none"></line><polygon points="-224 389, -250 394, -236 396, -233 403, -224 389" stroke-linejoin="round" fill="#000000" stroke="#000000" stroke-width="1"></polygon></g><g cursor="cell"><line x1="-256" y1="444" x2="-202" y2="413" stroke="red" stroke-width="8" opacity="0"></line><line x1="-256" y1="444" x2="-202" y2="413" stroke="#000000" stroke-width="2" stroke-linecap="none"></line><polygon points="-192 407, -218 412, -204 414, -201 422, -192 407" stroke-linejoin="round" fill="#000000" stroke="#000000" stroke-width="1"></polygon></g><g cursor="cell"><line x1="-224" y1="463" x2="-170" y2="431" stroke="red" stroke-width="8" opacity="0"></line><line x1="-224" y1="463" x2="-170" y2="431" stroke="#000000" stroke-width="2" stroke-linecap="none"></line><polygon points="-160 426, -186 431, -172 433, -169 440, -160 426" stroke-linejoin="round" fill="#000000" stroke="#000000" stroke-width="1"></polygon></g><g cursor="cell"><line x1="-288" y1="426" x2="-224" y2="463" stroke="red" stroke-width="8" opacity="0"></line><line x1="-288" y1="426" x2="-224" y2="463" stroke="#000000" stroke-width="2" stroke-linecap="round"></line></g><g cursor="cell"><line x1="-527" y1="564" x2="-272" y2="435" stroke="red" stroke-width="8" opacity="0"></line><line x1="-527" y1="564" x2="-272" y2="435" stroke="#000000" stroke-width="2" stroke-linecap="round"></line></g></g></g><g><g cursor="cell"><line x1="-96" y1="352" x2="-38" y2="285" stroke="red" stroke-width="8" opacity="0"></line><line x1="-96" y1="352" x2="-38" y2="285" stroke="#000000" stroke-width="2" stroke-linecap="round"></line><polygon points="-32 278, -53 287, -40 287, -33 293, -32 278" stroke-linejoin="round" fill="#000000" stroke="#000000" stroke-width="1"></polygon></g></g><g><g cursor="cell"><line x1="-64" y1="370" x2="147" y2="387" stroke="red" stroke-width="8" opacity="0"></line><line x1="-64" y1="370" x2="147" y2="387" stroke="#000000" stroke-width="2" stroke-linecap="round"></line><polygon points="160 389, 137 380, 143 387, 134 393, 160 389" stroke-linejoin="round" fill="#000000" stroke="#000000" stroke-width="1"></polygon></g></g><g><g cursor="cell"><line x1="-160" y1="389" x2="345" y2="464" stroke="red" stroke-width="8" opacity="0"></line><line x1="-160" y1="389" x2="345" y2="464" stroke="#000000" stroke-width="2" stroke-linecap="round"></line><polygon points="358 466, 337 456, 341 464, 332 469, 358 466" stroke-linejoin="round" fill="#000000" stroke="#000000" stroke-width="1"></polygon></g></g><g><g cursor="cell"><line x1="-744" y1="689" x2="-618" y2="616" stroke="red" stroke-width="8" opacity="0"></line><line x1="-744" y1="689" x2="-618" y2="616" stroke="#000000" stroke-width="2" stroke-linecap="round"></line><polygon points="-608 611, -634 616, -620 618, -617 625, -608 611" stroke-linejoin="round" fill="#000000" stroke="#000000" stroke-width="1"></polygon></g></g></g><g pointer-events="auto"><g opacity="1"><g id="1fa5ea6b-58ac-46a3-9dea-4022887f404f" transform="translate(0 0)"><svg x="-49" y="225" height="60.942" width="95.99" viewBox="0 0 25.397 16.124"><path d="M25.133 6.922l-2.073-1.83-12.434 7.178-8.29-4.786" fill="none" stroke="#83838a" stroke-width=".266"></path><path d="M10.626 12.27l-2.072 3.59h4.145zM.265 11.074l2.072-3.59-2.072 1.82z" fill="#d2d2d4" fill-rule="evenodd" stroke="#83838a" stroke-width=".265"></path><path d="M25.133 8.68L23.06 5.092l2.073 1.831z" fill="#b8b8bb" fill-rule="evenodd" stroke="#83838a" stroke-width=".265"></path><path d="M2.337 7.484l8.29 4.786L23.06 5.091 14.771.306z" fill="#ececed" fill-rule="evenodd" stroke="#83838a" stroke-width=".266"></path><path d="M.265 11.074l2.072-3.59 8.29 4.786-2.073 3.59z" fill="#d2d2d4" fill-rule="evenodd" stroke="#83838a" stroke-width=".265"></path><path d="M12.699 15.86l-2.073-3.59L23.06 5.091l2.073 3.59z" fill="#b8b8bb" fill-rule="evenodd" stroke="#83838a" stroke-width=".265"></path><path d="M.265 9.304v1.77l8.289 4.786h4.145l12.434-7.18V6.923l-2.073-1.83L14.771.305 2.337 7.484z" fill="none" stroke="#000000" stroke-width=".529"></path><path d="M14.764 6.288l-2.065-1.193-2.066 1.193L12.7 7.48zm-2.065.397l-.689-.397.689-.398.688.398zm3.442 1.193l.688-.398-.688-.397.688-.398c.379-.218.379-.576 0-.795l-.688-.397.688-.397-.688-.398-.689.398-.688-.398.688-.397-.688-.398-.688.398-.689-.398c-.379-.218-.998-.218-1.377 0l-.688.398-.689-.398-.688.398.688.397-.688.398-.688-.398-.689.398.689.397-.689.397c-.379.219-.379.577 0 .795l.689.398-.689.397.689.398.688-.398.688.398-.688.397.688.398.689-.398.688.398c.379.218.998.218 1.377 0l.689-.398.688.398.688-.398-.688-.397.688-.398zm-3.442.397L9.257 6.288 12.699 4.3l3.442 1.987z" fill="#4286c5"></path></svg></g></g><g opacity="1"><g id="568e9183-42c5-4bed-a4b6-ccf1f6a262a8" transform="translate(0 0)"><svg x="143" y="336" height="60.942" width="95.99" viewBox="0 0 25.397 16.124"><path d="M25.133 6.922l-2.073-1.83-12.434 7.178-8.29-4.786" fill="none" stroke="#83838a" stroke-width=".266"></path><path d="M10.626 12.27l-2.072 3.59h4.145zM.265 11.074l2.072-3.59-2.072 1.82z" fill="#d2d2d4" fill-rule="evenodd" stroke="#83838a" stroke-width=".265"></path><path d="M25.133 8.68L23.06 5.092l2.073 1.831z" fill="#b8b8bb" fill-rule="evenodd" stroke="#83838a" stroke-width=".265"></path><path d="M2.337 7.484l8.29 4.786L23.06 5.091 14.771.306z" fill="#ececed" fill-rule="evenodd" stroke="#83838a" stroke-width=".266"></path><path d="M.265 11.074l2.072-3.59 8.29 4.786-2.073 3.59z" fill="#d2d2d4" fill-rule="evenodd" stroke="#83838a" stroke-width=".265"></path><path d="M12.699 15.86l-2.073-3.59L23.06 5.091l2.073 3.59z" fill="#b8b8bb" fill-rule="evenodd" stroke="#83838a" stroke-width=".265"></path><path d="M.265 9.304v1.77l8.289 4.786h4.145l12.434-7.18V6.923l-2.073-1.83L14.771.305 2.337 7.484z" fill="none" stroke="#000000" stroke-width=".529"></path><path d="M14.764 6.288l-2.065-1.193-2.066 1.193L12.7 7.48zm-2.065.397l-.689-.397.689-.398.688.398zm3.442 1.193l.688-.398-.688-.397.688-.398c.379-.218.379-.576 0-.795l-.688-.397.688-.397-.688-.398-.689.398-.688-.398.688-.397-.688-.398-.688.398-.689-.398c-.379-.218-.998-.218-1.377 0l-.688.398-.689-.398-.688.398.688.397-.688.398-.688-.398-.689.398.689.397-.689.397c-.379.219-.379.577 0 .795l.689.398-.689.397.689.398.688-.398.688.398-.688.397.688.398.689-.398.688.398c.379.218.998.218 1.377 0l.689-.398.688.398.688-.398-.688-.397.688-.398zm-3.442.397L9.257 6.288 12.699 4.3l3.442 1.987z" fill="#4286c5"></path></svg></g></g><g opacity="1"><g id="8ad73418-6de4-4450-8295-1e393a87d8cb" transform="translate(0 0)"><svg x="335" y="447" height="60.942" width="95.99" viewBox="0 0 25.397 16.124"><path d="M25.133 6.922l-2.073-1.83-12.434 7.178-8.29-4.786" fill="none" stroke="#83838a" stroke-width=".266"></path><path d="M10.626 12.27l-2.072 3.59h4.145zM.265 11.074l2.072-3.59-2.072 1.82z" fill="#d2d2d4" fill-rule="evenodd" stroke="#83838a" stroke-width=".265"></path><path d="M25.133 8.68L23.06 5.092l2.073 1.831z" fill="#b8b8bb" fill-rule="evenodd" stroke="#83838a" stroke-width=".265"></path><path d="M2.337 7.484l8.29 4.786L23.06 5.091 14.771.306z" fill="#ececed" fill-rule="evenodd" stroke="#83838a" stroke-width=".266"></path><path d="M.265 11.074l2.072-3.59 8.29 4.786-2.073 3.59z" fill="#d2d2d4" fill-rule="evenodd" stroke="#83838a" stroke-width=".265"></path><path d="M12.699 15.86l-2.073-3.59L23.06 5.091l2.073 3.59z" fill="#b8b8bb" fill-rule="evenodd" stroke="#83838a" stroke-width=".265"></path><path d="M.265 9.304v1.77l8.289 4.786h4.145l12.434-7.18V6.923l-2.073-1.83L14.771.305 2.337 7.484z" fill="none" stroke="#000000" stroke-width=".529"></path><path d="M14.764 6.288l-2.065-1.193-2.066 1.193L12.7 7.48zm-2.065.397l-.689-.397.689-.398.688.398zm3.442 1.193l.688-.398-.688-.397.688-.398c.379-.218.379-.576 0-.795l-.688-.397.688-.397-.688-.398-.689.398-.688-.398.688-.397-.688-.398-.688.398-.689-.398c-.379-.218-.998-.218-1.377 0l-.688.398-.689-.398-.688.398.688.397-.688.398-.688-.398-.689.398.689.397-.689.397c-.379.219-.379.577 0 .795l.689.398-.689.397.689.398.688-.398.688.398-.688.397.688.398.689-.398.688.398c.379.218.998.218 1.377 0l.689-.398.688.398.688-.398-.688-.397.688-.398zm-3.442.397L9.257 6.288 12.699 4.3l3.442 1.987z" fill="#4286c5"></path></svg></g></g><g opacity="1"><g id="de2a9f7d-8b5d-4d00-8b7a-56a2e31f47cd" transform="translate(0 0)"><svg x="706" y="631" height="108.05" width="123" viewBox="0 0 32.544 28.588"><path d="M10.115 6.02v14.218l7.873-4.318V1.474z" fill="#b8b8bb" fill-rule="evenodd" stroke="#83838a" stroke-width=".268"></path><path d="M.265 2.228l9.85 3.791v14.219l-9.85-8.531z" fill="#d2d2d4" fill-rule="evenodd" stroke="#83838a" stroke-width=".265"></path><path d="M10.115 6.02l7.873-4.546L3.548.332.265 2.228z" fill="#ececed" fill-rule="evenodd" stroke="#83838a" stroke-width=".265"></path><path d="M.265 11.707l9.85 8.53 7.873-4.317V1.474L3.392.271.265 2.076z" fill="none" stroke="#000000" stroke-width=".529"></path><path d="M22.429 3.65L14.22 8.39l14.828 10.397 3.231-1.866z" fill="#ececed" fill-rule="evenodd" stroke="#83838a" stroke-width=".268"></path><path d="M14.22 8.39V22.61l14.777 5.687.051-9.509z" fill="#d2d2d4" fill-rule="evenodd" stroke="#83838a" stroke-width=".265"></path><path d="M29.048 18.787l3.231-1.866V26.4l-3.282 1.897z" fill="#b8b8bb" fill-rule="evenodd" stroke="#83838a" stroke-width=".265"></path><path d="M22.429 3.65L14.22 8.39V22.61l14.777 5.687 3.282-1.897v-9.478z" fill="none" stroke="#000000" stroke-width=".529"></path><path d="M25.604 20.872c-.071-.975-.928-2.116-1.982-2.599a2.547 2.547 0 0 0-.398-.144c-.566-.91-1.446-1.74-2.441-2.195-1.501-.687-2.76-.293-3.057.872-1.062-.091-1.77.532-1.77 1.597 0 1.436 1.27 3.181 2.84 3.899l5.961 2.73c1.41.645 2.555.121 2.555-1.17 0-1.004-.695-2.2-1.708-2.99zm-.847 3.38l-5.962-2.73c-1.098-.502-1.987-1.723-1.987-2.729 0-.916.74-1.336 1.704-1.022v-.018c0-1.148 1.016-1.613 2.27-1.04.95.435 1.763 1.34 2.102 2.252.198-.065.456-.041.738.088.626.287 1.135.986 1.135 1.56a.657.657 0 0 1-.156.454c.052.019.105.042.156.065.94.43 1.704 1.479 1.704 2.34 0 .86-.763 1.21-1.704.78z" fill="#4286c5"></path></svg></g></g><g opacity="1"><g id="ffb17152-31d1-40b0-8e9e-014aa71016d2" transform="translate(0 0)"><svg x="-256" y="296" height="111" width="128" fill-rule="evenodd"><path d="M64 74v37l64-37V37L64 74z" fill="#b8b8bb"></path><path d="M0 37v37l64 37V74L0 37z" fill="#d2d2d4"></path><path d="M0 37L64 0l64 37-64 37L0 37z" fill="#ececed"></path><path d="M64 73.407l62.111-35.86.514.889-62.487 36.078h-.276L.743 38.072l.514-.89L64 73.407z" fill="#83838a"></path><path d="M63.486 74h1.027v36h-1.027z" fill="#83838a"></path><path d="M128 37v37l-64 37L0 74V37L64 0l64 37zM2.054 38.185v34.63L64 108.627l61.946-35.812v-34.63L64 2.373 2.054 38.185z" fill="#000000"></path></svg><svg x="-201" y="314" width="60" height="35" style="overflow: visible; cursor: default;"><rect transform="matrix(0.707 0.409 -0.707 0.409 0 0)" width="60" height="35" rx="5" ry="5" fill="#4286c5"></rect><text transform="matrix(0.707 0.409 -0.707 0.409 0 0)" font-family="Open Sans" font-size="20pt" text-anchor="middle" x="50%" y="75%" fill="#ffffff"><tspan>M4</tspan></text></svg></g></g><g opacity="1"><g id="ce63c794-12ce-448e-9f46-b410a11a8841" transform="translate(0 0)"><svg x="-224" y="315" height="111" width="128" fill-rule="evenodd"><path d="M64 74v37l64-37V37L64 74z" fill="#b8b8bb"></path><path d="M0 37v37l64 37V74L0 37z" fill="#d2d2d4"></path><path d="M0 37L64 0l64 37-64 37L0 37z" fill="#ececed"></path><path d="M64 73.407l62.111-35.86.514.889-62.487 36.078h-.276L.743 38.072l.514-.89L64 73.407z" fill="#83838a"></path><path d="M63.486 74h1.027v36h-1.027z" fill="#83838a"></path><path d="M128 37v37l-64 37L0 74V37L64 0l64 37zM2.054 38.185v34.63L64 108.627l61.946-35.812v-34.63L64 2.373 2.054 38.185z" fill="#000000"></path></svg><svg x="-169" y="332" width="60" height="35" style="overflow: visible; cursor: default;"><rect transform="matrix(0.707 0.409 -0.707 0.409 0 0)" width="60" height="35" rx="5" ry="5" fill="#4286c5"></rect><text transform="matrix(0.707 0.409 -0.707 0.409 0 0)" font-family="Open Sans" font-size="20pt" text-anchor="middle" x="50%" y="75%" fill="#ffffff"><tspan>M4</tspan></text></svg></g></g><g opacity="1"><g id="f9da8fb1-2b25-45a7-9fe2-8eff5f7b522d" transform="translate(0 0)"><svg x="-192" y="333" height="111" width="128" fill-rule="evenodd"><path d="M64 74v37l64-37V37L64 74z" fill="#b8b8bb"></path><path d="M0 37v37l64 37V74L0 37z" fill="#d2d2d4"></path><path d="M0 37L64 0l64 37-64 37L0 37z" fill="#ececed"></path><path d="M64 73.407l62.111-35.86.514.889-62.487 36.078h-.276L.743 38.072l.514-.89L64 73.407z" fill="#83838a"></path><path d="M63.486 74h1.027v36h-1.027z" fill="#83838a"></path><path d="M128 37v37l-64 37L0 74V37L64 0l64 37zM2.054 38.185v34.63L64 108.627l61.946-35.812v-34.63L64 2.373 2.054 38.185z" fill="#000000"></path></svg><svg x="-137" y="351" width="60" height="35" style="overflow: visible; cursor: default;"><rect transform="matrix(0.707 0.409 -0.707 0.409 0 0)" width="60" height="35" rx="5" ry="5" fill="#4286c5"></rect><text transform="matrix(0.707 0.409 -0.707 0.409 0 0)" font-family="Open Sans" font-size="20pt" text-anchor="middle" x="50%" y="75%" fill="#ffffff"><tspan>M4</tspan></text></svg></g></g><g opacity="1"><g id="91123a2f-a957-4471-8bc1-90760e0a5900" transform="translate(0 0)"><svg x="71" y="641" height="93.28" width="81" viewBox="0 0 21.431 24.68"><path d="M.268 5.102l12.537 7.238 5.224-.603 3.134-9.048L16.984.276 1.313 2.086z" fill="#ececed" fill-rule="evenodd"></path><path d="M.268 5.102v12.064l12.537 7.238V12.34z" fill="#d2d2d4" fill-rule="evenodd"></path><path d="M12.805 12.34l5.224-.603v12.064l-5.224.603z" fill="#d2d2d4" fill-rule="evenodd"></path><path d="M18.029 11.737l3.134-9.048v12.064l-3.134 9.048z" fill="#b8b8bb" fill-rule="evenodd"></path><path d="M.268 5.102l12.537 7.238 5.224-.603 3.134-9.048M18.029 11.737v12.064M12.805 12.34v12.064" fill="none" stroke="#83838a" stroke-width=".265"></path><path d="M.268 17.166l12.537 7.238 5.224-.603 3.134-9.048V2.689L16.984.276 1.313 2.086.268 5.102z" fill="none" stroke="#000000" stroke-width=".529"></path><path d="M16.852 3.319c-.637-.01-1.269-.156-1.755-.437-.486-.28-.738-.645-.756-1.013l-3.498.035c.11.43-.121.884-.694 1.215-.364.21-.812.34-1.282.391-.625.068-1.225.242-1.709.521-1.273.735-1.277 1.926-.013 2.664.733.423 1.145.956 1.247 1.509.957.059 1.88.296 2.613.72 1.279.73 3.34.727 4.614-.008.483-.28.784-.626.902-.987.089-.271.315-.53.678-.74.573-.33 1.36-.464 2.104-.4l.061-2.02c-.637-.01-1.269-.156-1.755-.437-.486-.28-.739-.645-.757-1.013z" fill="none"></path><path d="M17.277 4.302c.467.27 1.056.427 1.664.471l-.05 1.693c-.73-.014-1.466.14-2.023.462-.404.234-.655.522-.754.824-.107.33-.381.647-.823.902-1.16.671-3.041.674-4.207.007-.722-.418-1.619-.665-2.555-.75-.144-.54-.573-1.06-1.296-1.477C6.081 5.759 6.086 4.672 7.247 4c.441-.256.989-.414 1.559-.476.522-.057 1.02-.203 1.424-.436.557-.322.823-.749.8-1.17l2.926-.03c.076.352.348.693.815.963.473.274 1.071.432 1.688.473.072.357.345.703.818.976z" fill="#4286c5" fill-rule="evenodd"></path><g fill="#ffffff" font-family="Interstate" font-size="5.176" stroke-width=".268" style="line-height: 0%;"><path d="M11.246 3.567l1.863 1.078-.399.231-1.429-.826-.86.497q.139.04.259.09.122.049.225.108.588.34.609.725.021.385-.529.703-.566.327-1.233.305-.665-.023-1.307-.394-.22-.127-.414-.282-.19-.154-.36-.339l.478-.276q.096.19.265.352.17.163.421.309.407.235.858.249.45.013.818-.199.366-.212.343-.473-.024-.26-.43-.496-.19-.11-.423-.196-.23-.084-.517-.147zM14.127 7.104q.268.239.228.482-.038.245-.376.44-.52.3-1.16.259-.642-.042-1.3-.423-.221-.128-.412-.29-.19-.158-.352-.353l.458-.265q.082.18.259.35.176.17.432.319.446.258.855.29.412.035.748-.16.31-.179.265-.406-.04-.227-.428-.451l-.408-.237.39-.225.427.247q.35.202.675.23.326.026.59-.127.27-.156.22-.35-.044-.195-.401-.401-.195-.113-.461-.218-.266-.104-.623-.208l.423-.244q.346.112.618.227.275.115.484.236.54.313.609.638.07.323-.348.565-.291.168-.66.189-.367.019-.752-.114z" style="line-height: 1.25;"></path></g></svg></g></g><g opacity="1"><g id="466b3b73-84f6-40f7-9064-59ce6b8869f5" transform="translate(0 0)"><svg x="237" y="712" height="115.695" width="100.625" viewBox="0 0 26.624 30.611"><path d="M13.312.306v15l12.99-7.5z" fill="#4286c5" fill-rule="evenodd"></path><path d="M.322 7.806l12.99 7.5v-15z" fill="#26527b" fill-rule="evenodd"></path><path d="M13.312.306v15" fill="none" stroke="#b7d1e9" stroke-width=".265"></path><path d="M13.312 15.306l12.99-7.5-6.495 18.75-6.495 3.75z" fill="#26527b" fill-rule="evenodd"></path><path d="M.322 7.806l12.99 7.5v15l-6.495-3.75z" fill="#326ca2" fill-rule="evenodd"></path><path d="M.322 7.806l12.99 7.5 12.99-7.5-12.99 7.5v15" fill="none" stroke="#deeaf5" stroke-width=".265"></path><path d="M13.312.306l-12.99 7.5 6.495 18.75 6.495 3.75 6.495-3.75 6.495-18.75z" fill="none" stroke="#000000" stroke-width=".529"></path></svg></g></g><g opacity="1"><g id="45ceed5f-5116-48b5-a03a-ac320d9d28b6" transform="translate(0 0)"><svg x="-105" y="761" height="93.28" width="81" viewBox="0 0 21.431 24.68"><path d="M.268 5.102l12.537 7.238 5.224-.603 3.134-9.048L16.984.276 1.313 2.086z" fill="#ececed" fill-rule="evenodd"></path><path d="M.268 5.102v12.064l12.537 7.238V12.34z" fill="#d2d2d4" fill-rule="evenodd"></path><path d="M12.805 12.34l5.224-.603v12.064l-5.224.603z" fill="#d2d2d4" fill-rule="evenodd"></path><path d="M18.029 11.737l3.134-9.048v12.064l-3.134 9.048z" fill="#b8b8bb" fill-rule="evenodd"></path><path d="M.268 5.102l12.537 7.238 5.224-.603 3.134-9.048M18.029 11.737v12.064M12.805 12.34v12.064" fill="none" stroke="#83838a" stroke-width=".265"></path><path d="M.268 17.166l12.537 7.238 5.224-.603 3.134-9.048V2.689L16.984.276 1.313 2.086.268 5.102z" fill="none" stroke="#000000" stroke-width=".529"></path><path d="M16.852 3.319c-.637-.01-1.269-.156-1.755-.437-.486-.28-.738-.645-.756-1.013l-3.498.035c.11.43-.121.884-.694 1.215-.364.21-.812.34-1.282.391-.625.068-1.225.242-1.709.521-1.273.735-1.277 1.926-.013 2.664.733.423 1.145.956 1.247 1.509.957.059 1.88.296 2.613.72 1.279.73 3.34.727 4.614-.008.483-.28.784-.626.902-.987.089-.271.315-.53.678-.74.573-.33 1.36-.464 2.104-.4l.061-2.02c-.637-.01-1.269-.156-1.755-.437-.486-.28-.739-.645-.757-1.013z" fill="none"></path><path d="M17.277 4.302c.467.27 1.056.427 1.664.471l-.05 1.693c-.73-.014-1.466.14-2.023.462-.404.234-.655.522-.754.824-.107.33-.381.647-.823.902-1.16.671-3.041.674-4.207.007-.722-.418-1.619-.665-2.555-.75-.144-.54-.573-1.06-1.296-1.477C6.081 5.759 6.086 4.672 7.247 4c.441-.256.989-.414 1.559-.476.522-.057 1.02-.203 1.424-.436.557-.322.823-.749.8-1.17l2.926-.03c.076.352.348.693.815.963.473.274 1.071.432 1.688.473.072.357.345.703.818.976z" fill="#4286c5" fill-rule="evenodd"></path><g fill="#ffffff" font-family="Interstate" font-size="5.176" stroke-width=".268" style="line-height: 0%;"><path d="M11.246 3.567l1.863 1.078-.399.231-1.429-.826-.86.497q.139.04.259.09.122.049.225.108.588.34.609.725.021.385-.529.703-.566.327-1.233.305-.665-.023-1.307-.394-.22-.127-.414-.282-.19-.154-.36-.339l.478-.276q.096.19.265.352.17.163.421.309.407.235.858.249.45.013.818-.199.366-.212.343-.473-.024-.26-.43-.496-.19-.11-.423-.196-.23-.084-.517-.147zM14.127 7.104q.268.239.228.482-.038.245-.376.44-.52.3-1.16.259-.642-.042-1.3-.423-.221-.128-.412-.29-.19-.158-.352-.353l.458-.265q.082.18.259.35.176.17.432.319.446.258.855.29.412.035.748-.16.31-.179.265-.406-.04-.227-.428-.451l-.408-.237.39-.225.427.247q.35.202.675.23.326.026.59-.127.27-.156.22-.35-.044-.195-.401-.401-.195-.113-.461-.218-.266-.104-.623-.208l.423-.244q.346.112.618.227.275.115.484.236.54.313.609.638.07.323-.348.565-.291.168-.66.189-.367.019-.752-.114z" style="line-height: 1.25;"></path></g></svg></g></g><g opacity="1"><g id="47b42e6b-4573-45a8-8c19-de3c429916b1" transform="translate(0 0)"><svg x="-624" y="527" height="94" width="97" fill-rule="evenodd"><path d="M0 18.6v18.6l32.333 18.6h32.334L97 37.2V18.6L64.667 0H32.333L0 18.6z" fill="#ececed"></path><path d="M64.667 55.8L97 37.2v37.2L64.667 93V55.8z" fill="#b8b8bb"></path><path d="M32.333 55.8h32.334V93H32.333V55.8zM0 37.2v37.2L32.333 93V55.8L0 37.2z" fill="#d2d2d4"></path><g fill="none" stroke="#83838a" stroke-width="1.04"><path d="M.955 37.877L32.333 55.8h32.334l31.378-17.923M32.333 55.8v36.211M64.667 55.8v36.574"></path></g><path d="M97 18.6v55.8L64.667 93H32.333L0 74.4V18.6L32.333 0h32.334L97 18.6zM32.865 1.989L1.989 19.751v53.498l30.876 17.762h31.27l30.876-17.762V19.751L64.135 1.989h-31.27z" fill="#000000"></path><path d="M69.912 15.583c11.818 6.798 11.818 17.836 0 24.635-11.817 6.798-31.007 6.798-42.824 0-11.818-6.799-11.818-17.837 0-24.635 11.817-6.799 31.007-6.799 42.824 0z" fill="#4286c5"></path><path d="M49.584 14.774c1.824 1.049 1.824 2.753 0 3.802-1.824 1.05-4.786 1.05-6.61 0-1.824-1.049-1.824-2.753 0-3.802 1.824-1.05 4.786-1.05 6.61 0zM60.451 21.025c1.825 1.049 1.825 2.753 0 3.803-1.824 1.049-4.786 1.049-6.61 0-1.824-1.05-1.824-2.754 0-3.803s4.786-1.049 6.61 0zM71.319 27.276c1.824 1.05 1.824 2.754 0 3.803-1.825 1.049-4.787 1.049-6.611 0-1.824-1.049-1.824-2.753 0-3.803 1.824-1.049 4.786-1.049 6.611 0zM38.497 33.654c1.824 1.05 1.824 2.754 0 3.803-1.825 1.05-4.787 1.05-6.611 0-1.824-1.049-1.824-2.753 0-3.803 1.824-1.049 4.786-1.049 6.611 0z" fill="#ffffff"></path><path d="M47.458 15.878c.453.26.393.717-.133 1.02-.526.303-1.32.337-1.773.076-.452-.26-.392-.717.133-1.019.526-.303 1.321-.337 1.773-.077z" fill="#ffffff"></path><path d="M48.111 15.621c1.012.582 1.012 1.526 0 2.108-1.011.582-2.653.582-3.664 0-1.012-.582-1.012-1.526 0-2.108 1.011-.582 2.653-.582 3.664 0zM58.978 21.872c1.012.582 1.012 1.527 0 2.108-1.011.582-2.653.582-3.664 0-1.012-.581-1.012-1.526 0-2.108 1.011-.581 2.653-.581 3.664 0zM69.846 28.124c1.011.581 1.011 1.526 0 2.108-1.012.582-2.654.582-3.665 0-1.011-.582-1.011-1.527 0-2.108 1.011-.582 2.653-.582 3.665 0z" fill="#4286c5"></path><path d="M37.024 34.502c1.011.582 1.011 1.526 0 2.108-1.012.582-2.654.582-3.665 0-1.011-.582-1.011-1.526 0-2.108 1.011-.582 2.653-.582 3.665 0z" fill="#ffffff"></path><g fill="#ffffff"><path d="M52.301 25.172L37.719 33.56l.482.834 14.584-8.388-.484-.834z"></path><path d="M46.993 26.089l6.654-1.146-4.324 5.168c.189-1.691-.757-3.313-2.33-4.022z" stroke="#ffffff" stroke-width=".36"></path></g><g fill="#ffffff"><path d="M43.488 19.937l-6.057 13.797.886.387 6.056-13.798-.885-.386z"></path><path d="M39.76 23.812l4.676-4.854-.405 6.716c-.855-1.474-2.582-2.221-4.271-1.862z" stroke="#ffffff" stroke-width=".36"></path></g><g fill="#ffffff"><path d="M61.953 30.061l-23.985 3.483.14.955 23.985-3.486-.14-.952z"></path><path d="M56.68 28.957l6.608 1.387-5.936 3.209c.804-1.503.526-3.358-.672-4.596h0z" stroke="#ffffff" stroke-width=".36"></path></g><path d="M37.96 33.977l13.12-7.547M37.873 33.927l5.792-13.134M38.037 34.022l22.478-3.281" fill="#ffffff" stroke="#ffffff" stroke-width="1.93"></path></svg></g></g><g opacity="1"><g id="7cd4d4e6-7423-44c7-9786-eef82655cf36" transform="translate(0 0)"><svg x="-825" y="641" height="93.28" width="81" viewBox="0 0 21.431 24.68"><path d="M.268 5.102l12.537 7.238 5.224-.603 3.134-9.048L16.984.276 1.313 2.086z" fill="#ececed" fill-rule="evenodd"></path><path d="M.268 5.102v12.064l12.537 7.238V12.34z" fill="#d2d2d4" fill-rule="evenodd"></path><path d="M12.805 12.34l5.224-.603v12.064l-5.224.603z" fill="#d2d2d4" fill-rule="evenodd"></path><path d="M18.029 11.737l3.134-9.048v12.064l-3.134 9.048z" fill="#b8b8bb" fill-rule="evenodd"></path><path d="M.268 5.102l12.537 7.238 5.224-.603 3.134-9.048M18.029 11.737v12.064M12.805 12.34v12.064" fill="none" stroke="#83838a" stroke-width=".265"></path><path d="M.268 17.166l12.537 7.238 5.224-.603 3.134-9.048V2.689L16.984.276 1.313 2.086.268 5.102z" fill="none" stroke="#000000" stroke-width=".529"></path><path d="M16.852 3.319c-.637-.01-1.269-.156-1.755-.437-.486-.28-.738-.645-.756-1.013l-3.498.035c.11.43-.121.884-.694 1.215-.364.21-.812.34-1.282.391-.625.068-1.225.242-1.709.521-1.273.735-1.277 1.926-.013 2.664.733.423 1.145.956 1.247 1.509.957.059 1.88.296 2.613.72 1.279.73 3.34.727 4.614-.008.483-.28.784-.626.902-.987.089-.271.315-.53.678-.74.573-.33 1.36-.464 2.104-.4l.061-2.02c-.637-.01-1.269-.156-1.755-.437-.486-.28-.739-.645-.757-1.013z" fill="none"></path><path d="M17.277 4.302c.467.27 1.056.427 1.664.471l-.05 1.693c-.73-.014-1.466.14-2.023.462-.404.234-.655.522-.754.824-.107.33-.381.647-.823.902-1.16.671-3.041.674-4.207.007-.722-.418-1.619-.665-2.555-.75-.144-.54-.573-1.06-1.296-1.477C6.081 5.759 6.086 4.672 7.247 4c.441-.256.989-.414 1.559-.476.522-.057 1.02-.203 1.424-.436.557-.322.823-.749.8-1.17l2.926-.03c.076.352.348.693.815.963.473.274 1.071.432 1.688.473.072.357.345.703.818.976z" fill="#4286c5" fill-rule="evenodd"></path><g fill="#ffffff" font-family="Interstate" font-size="5.176" stroke-width=".268" style="line-height: 0%;"><path d="M11.246 3.567l1.863 1.078-.399.231-1.429-.826-.86.497q.139.04.259.09.122.049.225.108.588.34.609.725.021.385-.529.703-.566.327-1.233.305-.665-.023-1.307-.394-.22-.127-.414-.282-.19-.154-.36-.339l.478-.276q.096.19.265.352.17.163.421.309.407.235.858.249.45.013.818-.199.366-.212.343-.473-.024-.26-.43-.496-.19-.11-.423-.196-.23-.084-.517-.147zM14.127 7.104q.268.239.228.482-.038.245-.376.44-.52.3-1.16.259-.642-.042-1.3-.423-.221-.128-.412-.29-.19-.158-.352-.353l.458-.265q.082.18.259.35.176.17.432.319.446.258.855.29.412.035.748-.16.31-.179.265-.406-.04-.227-.428-.451l-.408-.237.39-.225.427.247q.35.202.675.23.326.026.59-.127.27-.156.22-.35-.044-.195-.401-.401-.195-.113-.461-.218-.266-.104-.623-.208l.423-.244q.346.112.618.227.275.115.484.236.54.313.609.638.07.323-.348.565-.291.168-.66.189-.367.019-.752-.114z" style="line-height: 1.25;"></path></g></svg></g></g></g><g pointer-events="auto"></g><g pointer-events="auto"></g><g pointer-events="auto"><g opacity="1"><g id="b9eafbfd-706f-4f37-a265-26f18b8c460a"><svg x="-644" y="590" overflow="visible"><text stroke="#ffffff" stroke-width="4" font-family="Open Sans" y="26.24" font-size="16pt" fill="#000000" font-weight="bold" transform="matrix(0.707 0.409 -0.707 0.409 0 0)" xml:space="preserve"><tspan x="8" dy="0">eks-alb</tspan></text><text font-family="Open Sans" y="26.24" font-size="16pt" fill="#000000" font-weight="bold" transform="matrix(0.707 0.409 -0.707 0.409 0 0)" xml:space="preserve"><tspan x="8" dy="0">eks-alb</tspan></text></svg></g></g><g opacity="1"><g id="bca88453-6f25-43e5-b333-cdc37b8ade66"><svg x="-268" y="374" overflow="visible"><text stroke="#ffffff" stroke-width="4" font-family="Open Sans" y="26.24" font-size="16pt" fill="#000000" font-weight="bold" transform="matrix(0.707 0.409 -0.707 0.409 0 0)" xml:space="preserve"><tspan x="8" dy="0">terraform-eks</tspan></text><text font-family="Open Sans" y="26.24" font-size="16pt" fill="#000000" font-weight="bold" transform="matrix(0.707 0.409 -0.707 0.409 0 0)" xml:space="preserve"><tspan x="8" dy="0">terraform-eks</tspan></text></svg></g></g><g opacity="1"><g id="164fd734-9dd3-43b7-b185-d7607110dfa4"><svg x="-140" y="215" overflow="visible"><text stroke="#ffffff" stroke-width="4" font-family="Open Sans" y="26.24" font-size="16pt" fill="#000000" font-weight="bold" transform="matrix(0.707 0.409 -0.707 0.409 0 0)" xml:space="preserve"><tspan x="8" dy="0">vol-05e4eae47f8c78713</tspan></text><text font-family="Open Sans" y="26.24" font-size="16pt" fill="#000000" font-weight="bold" transform="matrix(0.707 0.409 -0.707 0.409 0 0)" xml:space="preserve"><tspan x="8" dy="0">vol-05e4eae47f8c78713</tspan></text></svg></g></g><g opacity="1"><g id="8b71ec5a-e34e-4086-8555-f474c6e8f890"><svg x="52" y="326" overflow="visible"><text stroke="#ffffff" stroke-width="4" font-family="Open Sans" y="26.24" font-size="16pt" fill="#000000" font-weight="bold" transform="matrix(0.707 0.409 -0.707 0.409 0 0)" xml:space="preserve"><tspan x="8" dy="0">vol-00c921e3bbe2f6272</tspan></text><text font-family="Open Sans" y="26.24" font-size="16pt" fill="#000000" font-weight="bold" transform="matrix(0.707 0.409 -0.707 0.409 0 0)" xml:space="preserve"><tspan x="8" dy="0">vol-00c921e3bbe2f6272</tspan></text></svg></g></g><g opacity="1"><g id="72b602d3-56ad-4576-b3f6-6b882ca899e6"><svg x="244" y="437" overflow="visible"><text stroke="#ffffff" stroke-width="4" font-family="Open Sans" y="26.24" font-size="16pt" fill="#000000" font-weight="bold" transform="matrix(0.707 0.409 -0.707 0.409 0 0)" xml:space="preserve"><tspan x="8" dy="0">vol-03535e70f38915376</tspan></text><text font-family="Open Sans" y="26.24" font-size="16pt" fill="#000000" font-weight="bold" transform="matrix(0.707 0.409 -0.707 0.409 0 0)" xml:space="preserve"><tspan x="8" dy="0">vol-03535e70f38915376</tspan></text></svg></g></g><g opacity="1"><g id="08f5eb87-1234-401a-8def-be714f9b1320"><svg x="198" y="777" overflow="visible"><text stroke="#ffffff" stroke-width="4" font-family="Open Sans" y="26.24" font-size="16pt" fill="#000000" font-weight="bold" transform="matrix(0.707 0.409 -0.707 0.409 0 0)" xml:space="preserve"><tspan x="8" dy="0">jason-tf-balena</tspan></text><text font-family="Open Sans" y="26.24" font-size="16pt" fill="#000000" font-weight="bold" transform="matrix(0.707 0.409 -0.707 0.409 0 0)" xml:space="preserve"><tspan x="8" dy="0">jason-tf-balena</tspan></text></svg></g></g><g opacity="1"><g id="785a9980-1f48-4c57-af0a-f9495bfc5515"><svg x="-851" y="692" overflow="visible"><text stroke="#ffffff" stroke-width="4" font-family="Open Sans" y="26.24" font-size="16pt" fill="#000000" font-weight="bold" transform="matrix(0.707 0.409 -0.707 0.409 0 0)" xml:space="preserve"><tspan x="8" dy="0">kumpf.mobi</tspan></text><text font-family="Open Sans" y="26.24" font-size="16pt" fill="#000000" font-weight="bold" transform="matrix(0.707 0.409 -0.707 0.409 0 0)" xml:space="preserve"><tspan x="8" dy="0">kumpf.mobi</tspan></text></svg></g></g><g opacity="1"><g id="d85765a5-92fc-446a-9b8f-8836cb4f1013"><svg x="50" y="695" overflow="visible"><text stroke="#ffffff" stroke-width="4" font-family="Open Sans" y="26.24" font-size="16pt" fill="#000000" font-weight="bold" transform="matrix(0.707 0.409 -0.707 0.409 0 0)" xml:space="preserve"><tspan x="8" dy="0">ja50n.com</tspan></text><text font-family="Open Sans" y="26.24" font-size="16pt" fill="#000000" font-weight="bold" transform="matrix(0.707 0.409 -0.707 0.409 0 0)" xml:space="preserve"><tspan x="8" dy="0">ja50n.com</tspan></text></svg></g></g><g opacity="1"><g id="83077cc7-15a3-43c8-8cc1-00f28e65bff9"><svg x="-131" y="812" overflow="visible"><text stroke="#ffffff" stroke-width="4" font-family="Open Sans" y="26.24" font-size="16pt" fill="#000000" font-weight="bold" transform="matrix(0.707 0.409 -0.707 0.409 0 0)" xml:space="preserve"><tspan x="8" dy="0">kumpf.mobi</tspan></text><text font-family="Open Sans" y="26.24" font-size="16pt" fill="#000000" font-weight="bold" transform="matrix(0.707 0.409 -0.707 0.409 0 0)" xml:space="preserve"><tspan x="8" dy="0">kumpf.mobi</tspan></text></svg></g></g><g opacity="1"><g id="4cbae01e-8154-4972-a087-2751fa988f34"><svg x="670" y="666" overflow="visible"><text stroke="#ffffff" stroke-width="4" font-family="Open Sans" y="26.24" font-size="16pt" fill="#000000" font-weight="bold" transform="matrix(0.707 0.409 -0.707 0.409 0 0)" xml:space="preserve"><tspan x="8" dy="0">terraform-eks-gateway</tspan></text><text font-family="Open Sans" y="26.24" font-size="16pt" fill="#000000" font-weight="bold" transform="matrix(0.707 0.409 -0.707 0.409 0 0)" xml:space="preserve"><tspan x="8" dy="0">terraform-eks-gateway</tspan></text></svg></g></g></g><g><g></g><g></g><g></g><g></g><g></g><g></g><g></g><g></g><g></g><g></g><g></g><g></g><g></g></g></g></svg>